HIERARCHY
ROOT Hips
{
	OFFSET 0.000000 0.000000 0.000000 
	CHANNELS 6 Xposition Yposition Zposition Zrotation Yrotation Xrotation
	JOINT LeftUpLeg
	{
		OFFSET 1.363060 -1.794630 0.839290 
		CHANNELS 3 Zrotation Yrotation Xrotation
		JOINT LeftLeg
		{
			OFFSET 2.448110 -6.726130 0.000000 
			CHANNELS 3 Zrotation Yrotation Xrotation
			JOINT LeftFoot
			{
				OFFSET 2.562200 -7.039590 0.000000 
				CHANNELS 3 Zrotation Yrotation Xrotation
				JOINT LeftToeBase
				{
					OFFSET 0.157640 -0.433110 2.322550 
					CHANNELS 3 Zrotation Yrotation Xrotation
					End Site
					{
						OFFSET 0.000000 0.000000 0.000000 
					}
				}
			}
		}
	}
	JOINT RightUpLeg
	{
		OFFSET -1.305520 -1.794630 0.839290 
		CHANNELS 3 Zrotation Yrotation Xrotation
		JOINT RightLeg
		{
			OFFSET -2.542530 -6.985550 0.000000 
			CHANNELS 3 Zrotation Yrotation Xrotation
			JOINT RightFoot
			{
				OFFSET -2.568260 -7.056230 0.000000 
				CHANNELS 3 Zrotation Yrotation Xrotation
				JOINT RightToeBase
				{
					OFFSET -0.164730 -0.452590 2.363150 
					CHANNELS 3 Zrotation Yrotation Xrotation
					End Site
					{
						OFFSET 0.000000 0.000000 0.000000 
					}
				}
			}
		}
	}
	JOINT Spine
	{
		OFFSET 0.028270 2.035590 -0.193380 
		CHANNELS 3 Zrotation Yrotation Xrotation
		JOINT Spine1
		{
			OFFSET 0.056720 2.048850 -0.042750 
			CHANNELS 3 Zrotation Yrotation Xrotation
			JOINT Neck1
			{
				OFFSET -0.054170 1.746240 0.172020 
				CHANNELS 3 Zrotation Yrotation Xrotation
				JOINT Head
				{
					OFFSET 0.104070 1.761360 -0.123970 
					CHANNELS 3 Zrotation Yrotation Xrotation
					End Site
					{
						OFFSET 0.000000 0.000000 0.000000 
					}
				}
			}
			JOINT LeftArm
			{
				OFFSET 3.362410 1.200890 -0.311210 
				CHANNELS 3 Zrotation Yrotation Xrotation
				JOINT LeftForeArm
				{
					OFFSET 4.983000 -0.000000 -0.000000 
					CHANNELS 3 Zrotation Yrotation Xrotation
					JOINT LeftHand
					{
						OFFSET 3.483560 -0.000000 -0.000000 
						CHANNELS 3 Zrotation Yrotation Xrotation
						JOINT LeftHandIndex1
						{
							OFFSET 0.715260 -0.000000 -0.000000 
							CHANNELS 3 Zrotation Yrotation Xrotation
							End Site
							{
								OFFSET 0.000000 0.000000 0.000000 
							}
						}
					}
				}
			}
			JOINT RightArm
			{
				OFFSET -3.136600 1.374050 -0.404650 
				CHANNELS 3 Zrotation Yrotation Xrotation
				JOINT RightForeArm
				{
					OFFSET -5.241900 -0.000000 -0.000000 
					CHANNELS 3 Zrotation Yrotation Xrotation
					JOINT RightHand
					{
						OFFSET -3.444170 -0.000000 -0.000000 
						CHANNELS 3 Zrotation Yrotation Xrotation
						JOINT RightHandIndex1
						{
							OFFSET -0.622530 -0.000000 -0.000000 
							CHANNELS 3 Zrotation Yrotation Xrotation
							End Site
							{
								OFFSET 0.000000 0.000000 0.000000 
							}
						}
					}
				}
			}
		}
	}
}
MOTION
Frames: 15
Frame Time: 0.041667
8.701048 18.335435 -1.416749 0.982038 -8.584418 5.697251 -16.862850 -1.534609 -20.867783 -1.881072 9.296077 24.330304 1.247315 0.304941 10.231717 0.000900 -0.197500 -0.542700 14.881557 8.009004 -19.738159 -10.540616 -19.195712 64.224866 0.723372 -3.834518 17.235669 -1.130900 6.754200 -18.989300 0.434818 4.549016 -3.622525 -3.026921 2.255330 -1.027477 4.046403 -0.971975 13.111952 0.294900 -0.298000 7.135400 -88.913381 4.513711 -4.772312 3.710474 -7.850600 -0.970261 -0.214235 1.706102 18.196539 -7.125000 0.000000 0.000000 87.243911 0.830544 24.188990 -22.668857 32.832780 -9.248981 1.799622 1.829464 -20.763359 7.125000 0.000000 0.000000 
8.707023 18.350880 -1.161966 1.088743 -8.169607 5.458225 -17.189227 -1.607053 -19.680531 -1.923461 9.116909 24.058993 1.304376 0.034282 9.666823 0.006400 -0.515200 -1.415800 14.846513 7.832729 -20.633861 -10.343683 -19.270577 63.851062 0.591859 -3.189408 16.272701 -1.213300 6.987300 -19.677900 0.435076 4.388394 -3.539817 -3.067716 2.135532 -0.620121 3.982311 -1.143576 13.172801 0.248800 -0.380400 7.134100 -88.546983 3.297437 0.980296 4.438929 -8.897467 -1.054313 -0.428184 1.545788 13.605772 -7.125000 0.000000 0.000000 88.075821 -0.166777 23.410730 -21.304128 31.707635 -8.511769 1.853547 1.725362 -20.058116 7.125000 0.000000 0.000000 
8.705332 18.378162 -0.914060 1.146909 -7.675246 5.371250 -17.356879 -1.819214 -18.618095 -1.983557 8.918681 23.720326 1.381722 -0.248908 9.635062 0.004000 0.406900 1.118000 14.912697 7.597319 -21.657492 -10.070325 -19.325687 63.284868 0.426651 -2.457688 15.135204 -1.306500 7.240800 -20.430700 0.470738 4.111083 -3.502297 -2.936556 1.962210 -0.447760 3.918790 -1.199156 13.089593 0.180800 -0.405300 6.988800 -88.389635 2.404531 5.923291 5.460964 -10.269690 -1.242131 -0.548721 1.435230 9.421697 -7.125000 0.000000 0.000000 88.899640 -1.388580 22.494718 -20.307391 30.901946 -8.039890 1.915725 1.644224 -18.862973 7.125000 0.000000 0.000000 
8.704994 18.391014 -0.679007 1.255134 -7.089151 5.361107 -17.552060 -2.017105 -17.803686 -2.022406 8.778431 23.523168 1.524397 -0.745228 9.580574 0.063200 1.621900 4.462000 14.880208 7.414463 -22.798449 -9.756850 -19.365876 62.565381 0.232180 -1.712488 14.197675 -1.033800 6.467000 -18.145700 0.517753 3.802119 -3.535621 -2.688442 1.778054 -0.597796 3.889853 -1.125228 13.194903 0.166400 -0.371300 6.999500 -88.161618 1.549243 10.085858 6.269545 -11.331264 -1.409173 -0.613877 1.363427 5.895909 -7.125000 0.000000 0.000000 89.354669 -2.852568 21.932230 -19.314170 30.068680 -7.576220 1.929601 1.646261 -18.524811 7.125000 0.000000 0.000000 
8.701499 18.381318 -0.450153 0.937709 -6.447461 5.271066 -17.314834 -2.304533 -16.816878 -2.035942 8.629331 23.299593 1.533809 -0.819250 8.883771 0.000200 -0.079400 -0.218100 15.264960 7.397452 -23.785239 -9.409595 -19.393353 61.776466 0.071374 -1.135068 13.485577 -0.382500 3.971900 -10.997700 0.605125 3.491388 -3.560170 -2.437478 1.588995 -0.737755 3.902024 -1.034127 13.383838 0.204900 -0.332900 7.120200 -87.841205 0.540574 13.924435 7.020832 -12.279150 -1.576190 -0.706514 1.293336 2.560541 -7.125000 0.000000 0.000000 89.567115 -4.058977 21.651369 -18.044286 28.960693 -7.056448 1.942258 1.730623 -19.077453 7.125000 0.000000 0.000000 
8.689324 18.370158 -0.225359 0.470280 -5.655447 5.246891 -16.862881 -2.591230 -15.914061 -2.048874 8.478353 23.082351 1.665959 -1.221225 8.203660 0.076500 -1.784300 -4.909900 15.836238 7.283364 -24.820739 -8.967627 -19.378408 60.734890 -0.077287 -0.649636 12.556993 -0.136400 2.380400 -6.558200 0.714727 3.130689 -3.582074 -2.168230 1.374809 -0.848026 3.813833 -1.051962 13.543496 0.137900 -0.343700 7.237600 -87.690052 -0.480981 16.698572 7.976053 -13.426237 -1.830520 -0.758800 1.265412 -0.126435 -7.125000 0.000000 0.000000 89.984290 -5.028113 20.804456 -16.790976 27.797433 -6.569202 1.956035 1.791123 -18.815848 7.125000 0.000000 0.000000 
8.695975 18.384813 0.031679 1.334089 -5.308298 4.928158 -17.972254 -2.597677 -14.902426 -2.060256 8.418044 23.052634 1.788388 -1.795919 7.260940 0.010700 -0.667200 -1.833600 14.891694 7.126453 -25.437780 -8.425279 -19.214074 59.215551 -0.398694 0.248102 11.900505 -0.192000 2.821800 -7.783100 0.686945 2.988079 -3.556195 -1.838667 1.280020 -0.777688 3.768747 -1.173742 13.717592 0.103300 -0.404000 7.359800 -87.420585 -1.643485 19.417261 8.889687 -14.505413 -2.096973 -0.779396 1.263858 -2.671504 -7.125000 0.000000 0.000000 90.310923 -6.208747 19.560836 -15.505839 26.503768 -5.971552 1.964572 1.744563 -17.417223 7.125000 0.000000 0.000000 
8.705107 18.399582 0.304161 2.158017 -4.809514 4.615236 -19.054057 -2.514693 -13.922996 -2.067313 8.364214 23.054753 2.006101 -2.667009 6.904575 0.032400 1.162400 3.195900 14.002468 6.648675 -25.889561 -7.789674 -18.944802 57.383846 -0.717940 1.003074 11.355501 -0.227500 3.069900 -8.473300 0.654997 2.772047 -3.517171 -1.596122 1.145968 -0.581489 3.889944 -1.225239 13.838285 0.193000 -0.424200 7.415000 -86.955306 -2.837813 22.023486 9.703494 -15.450054 -2.345676 -0.809367 1.256312 -5.011814 -7.125000 0.000000 0.000000 90.526792 -7.660746 18.725725 -14.375004 25.380529 -5.442707 1.958557 1.697232 -16.508396 7.125000 0.000000 0.000000 
8.705220 18.391690 0.555336 2.291272 -4.161557 4.635570 -19.295565 -2.173621 -13.266594 -2.078104 8.254169 22.959963 2.412541 -4.035161 7.013214 0.119000 2.223700 6.124200 13.872240 6.159432 -26.650849 -7.116303 -18.685495 55.457232 -0.813019 0.977849 10.674885 -0.217200 3.000600 -8.280400 0.682087 2.482243 -3.541929 -1.456721 0.976635 -0.643910 3.978803 -1.241454 13.828788 0.246400 -0.426400 7.351500 -86.580382 -3.672395 23.990921 10.768802 -16.662522 -2.677793 -0.791204 1.223166 -6.898960 -7.125000 0.000000 0.000000 91.015202 -9.033732 17.875496 -13.495337 24.545898 -5.115063 1.950241 1.714144 -15.795391 7.125000 0.000000 0.000000 
8.697215 18.387744 0.775847 1.922084 -3.672547 4.907261 -18.909297 -1.694377 -13.068628 -2.041956 8.200927 22.998520 2.733314 -5.029819 6.880080 0.137100 2.386900 6.576100 14.276290 6.145020 -27.696862 -6.384610 -18.442487 53.386480 -0.660182 0.177807 9.663446 -0.341000 3.752400 -10.381000 0.756528 2.282342 -3.629204 -1.242665 0.856895 -1.024364 4.040986 -1.252473 13.778597 0.283100 -0.431800 7.314700 -86.243940 -4.568558 25.705962 11.934600 -17.928670 -3.034074 -0.756776 1.137389 -8.916502 -7.125000 0.000000 0.000000 91.598786 -10.086439 16.371004 -12.397618 23.381687 -4.720851 1.975430 1.688267 -14.323973 7.125000 0.000000 0.000000 
8.688197 18.380868 0.999627 1.845355 -3.226209 5.005287 -18.858300 -1.292450 -12.754195 -1.985238 8.196813 23.145425 2.993022 -5.900570 6.506534 0.133300 2.353600 6.484000 14.388563 6.160474 -28.540764 -5.589305 -18.102724 51.134387 -0.680096 -0.095293 8.785152 -0.567800 4.826100 -13.413100 0.805557 2.151795 -3.692146 -0.967039 0.773258 -1.337381 4.095330 -1.319823 13.850243 0.312300 -0.462900 7.388900 -85.854995 -5.613392 27.661002 12.999431 -19.057607 -3.385986 -0.779478 1.060637 -11.292034 -7.125000 0.000000 0.000000 92.134635 -11.104665 14.390032 -11.217175 22.082823 -4.329098 2.003522 1.666526 -12.546764 7.125000 0.000000 0.000000 
8.679178 18.369030 1.230848 1.871597 -2.637468 5.032294 -18.922216 -0.871404 -12.275472 -1.956673 8.137307 23.142612 3.189904 -6.603810 6.324546 0.085800 1.889100 5.199300 14.369164 5.986780 -29.186390 -4.754625 -17.658959 48.691028 -0.638444 -0.581859 8.254565 -0.797000 5.698300 -15.911500 0.831474 2.001360 -3.703963 -0.816740 0.674042 -1.413706 4.082800 -1.512677 13.814249 0.291100 -0.556500 7.351800 -85.232548 -6.783274 30.140534 13.946311 -20.059784 -3.741915 -0.827694 1.044180 -13.624257 -7.125000 0.000000 0.000000 92.706026 -12.078062 12.370151 -10.226981 21.002601 -4.032695 2.007449 1.667904 -10.933045 7.125000 0.000000 0.000000 
8.670159 18.361364 1.465450 1.845199 -2.013865 5.068959 -18.935644 -0.680270 -11.524880 -1.972181 7.987916 22.877038 3.153336 -6.491933 6.098174 0.026800 1.057200 2.906100 14.308566 5.758014 -29.684152 -3.876531 -17.115103 46.028817 -0.439972 -1.527616 7.737551 -0.891300 6.017500 -16.835200 0.872273 1.751038 -3.695243 -0.653455 0.520451 -1.389252 4.109287 -1.599019 13.637371 0.296600 -0.599300 7.217300 -84.527456 -8.142259 31.931913 14.872579 -21.004680 -4.115008 -0.848516 1.046353 -15.445783 -7.125000 0.000000 0.000000 93.262069 -12.842230 10.166068 -9.222920 19.821758 -3.682393 2.017939 1.590840 -8.946258 7.125000 0.000000 0.000000 
8.663507 18.331715 1.708847 2.074297 -1.522039 5.050758 -19.259788 -0.413739 -10.564118 -1.995507 7.808239 22.532700 3.146933 -6.530773 5.569581 0.006600 0.526300 1.446200 13.883492 5.575809 -30.019268 -2.948251 -16.452005 43.178600 -0.584097 -1.531593 7.655624 -0.636400 5.104100 -14.205700 0.892586 1.573469 -3.692488 -0.424913 0.406005 -1.417875 4.215969 -1.622021 13.489042 0.362400 -0.610100 7.111700 -84.164105 -9.316816 32.877508 15.933791 -22.069328 -4.564265 -0.870908 1.028929 -16.762692 -7.125000 0.000000 0.000000 93.712487 -13.949437 8.508635 -8.500474 18.966608 -3.410631 2.013336 1.520363 -7.104092 7.125000 0.000000 0.000000 
8.660464 18.318412 1.964080 2.235094 -1.107503 5.081549 -19.429425 0.180008 -9.662493 -2.067026 7.501208 21.877372 3.268472 -6.983706 5.413093 0.000600 0.154700 0.425100 13.457175 5.375389 -30.306684 -2.019186 -15.714554 40.276449 -0.901621 -1.098501 7.864678 -0.316300 3.615100 -9.996300 0.896049 1.511950 -3.672929 -0.331943 0.341839 -1.287252 4.238435 -1.703201 13.420389 0.371800 -0.649000 7.078000 -83.804145 -10.450665 34.060810 17.051715 -23.160714 -5.022688 -0.879768 0.964277 -18.127844 -7.125000 0.000000 0.000000 94.144478 -14.936694 6.743719 -7.788959 18.127431 -3.164999 2.008510 1.454296 -5.207837 7.125000 0.000000 0.000000 
